<svg width="719" height="719" viewBox="0 0 719 719" fill="none" xmlns="http://www.w3.org/2000/svg">
<circle cx="359.5" cy="359.5" r="359.5" fill="url(#paint0_linear_26_1372)"/>
<g filter="url(#filter0_i_26_1372)">
<circle cx="359.5" cy="359.5" r="116.5" fill="url(#paint1_linear_26_1372)"/>
</g>
<circle cx="359.5" cy="359.5" r="117.5" stroke="black" stroke-width="2"/>
<path d="M359.455 407.273C353.212 407.273 347.697 406.167 342.909 403.955C338.152 401.712 334.439 398.636 331.773 394.727C329.106 390.788 327.788 386.303 327.818 381.273C327.788 377.333 328.561 373.697 330.136 370.364C331.712 367 333.864 364.197 336.591 361.955C339.348 359.682 342.424 358.242 345.818 357.636V357.091C341.364 355.939 337.818 353.439 335.182 349.591C332.545 345.712 331.242 341.303 331.273 336.364C331.242 331.636 332.439 327.409 334.864 323.682C337.288 319.955 340.621 317.015 344.864 314.864C349.136 312.712 354 311.636 359.455 311.636C364.848 311.636 369.667 312.712 373.909 314.864C378.152 317.015 381.485 319.955 383.909 323.682C386.364 327.409 387.606 331.636 387.636 336.364C387.606 341.303 386.258 345.712 383.591 349.591C380.955 353.439 377.455 355.939 373.091 357.091V357.636C376.455 358.242 379.485 359.682 382.182 361.955C384.879 364.197 387.03 367 388.636 370.364C390.242 373.697 391.061 377.333 391.091 381.273C391.061 386.303 389.697 390.788 387 394.727C384.333 398.636 380.621 401.712 375.864 403.955C371.136 406.167 365.667 407.273 359.455 407.273ZM359.455 397.273C363.667 397.273 367.303 396.591 370.364 395.227C373.424 393.864 375.788 391.939 377.455 389.455C379.121 386.97 379.97 384.061 380 380.727C379.97 377.212 379.061 374.106 377.273 371.409C375.485 368.712 373.045 366.591 369.955 365.045C366.894 363.5 363.394 362.727 359.455 362.727C355.485 362.727 351.939 363.5 348.818 365.045C345.727 366.591 343.288 368.712 341.5 371.409C339.742 374.106 338.879 377.212 338.909 380.727C338.879 384.061 339.682 386.97 341.318 389.455C342.985 391.939 345.364 393.864 348.455 395.227C351.545 396.591 355.212 397.273 359.455 397.273ZM359.455 353.091C362.788 353.091 365.742 352.424 368.318 351.091C370.924 349.758 372.97 347.894 374.455 345.5C375.939 343.106 376.697 340.303 376.727 337.091C376.697 333.939 375.955 331.197 374.5 328.864C373.045 326.5 371.03 324.682 368.455 323.409C365.879 322.106 362.879 321.455 359.455 321.455C355.97 321.455 352.924 322.106 350.318 323.409C347.712 324.682 345.697 326.5 344.273 328.864C342.848 331.197 342.152 333.939 342.182 337.091C342.152 340.303 342.864 343.106 344.318 345.5C345.803 347.894 347.848 349.758 350.455 351.091C353.061 352.424 356.061 353.091 359.455 353.091Z" fill="#1F1F1F"/>
<defs>
<filter id="filter0_i_26_1372" x="241" y="241" width="253" height="245" filterUnits="userSpaceOnUse" color-interpolation-filters="sRGB">
<feFlood flood-opacity="0" result="BackgroundImageFix"/>
<feBlend mode="normal" in="SourceGraphic" in2="BackgroundImageFix" result="shape"/>
<feColorMatrix in="SourceAlpha" type="matrix" values="0 0 0 0 0 0 0 0 0 0 0 0 0 0 0 0 0 0 127 0" result="hardAlpha"/>
<feOffset dx="16" dy="8"/>
<feGaussianBlur stdDeviation="8"/>
<feComposite in2="hardAlpha" operator="arithmetic" k2="-1" k3="1"/>
<feColorMatrix type="matrix" values="0 0 0 0 0 0 0 0 0 0 0 0 0 0 0 0 0 0 0.25 0"/>
<feBlend mode="normal" in2="shape" result="effect1_innerShadow_26_1372"/>
</filter>
<linearGradient id="paint0_linear_26_1372" x1="572" y1="66.5" x2="101.5" y2="617" gradientUnits="userSpaceOnUse">
<stop stop-color="#1C1C1C"/>
<stop offset="1" stop-color="#434343"/>
</linearGradient>
<linearGradient id="paint1_linear_26_1372" x1="359.5" y1="243" x2="359.5" y2="476" gradientUnits="userSpaceOnUse">
<stop stop-color="white"/>
<stop offset="1" stop-color="#A9A9A9"/>
</linearGradient>
</defs>
</svg>
