<svg width="444" height="444" viewBox="0 0 444 444" fill="none" xmlns="http://www.w3.org/2000/svg">
<g filter="url(#filter0_diii_26_1047)">
<path d="M364.8 6L79.2 6C42.0865 6 12 36.0865 12 73.2L12 358.8C12 395.914 42.0865 426 79.2 426H364.8C401.914 426 432 395.914 432 358.8V73.2C432 36.0865 401.914 6 364.8 6Z" fill="#EEEEEE"/>
</g>
<g filter="url(#filter1_i_26_1047)">
<path d="M314.4 39.5999L129.6 39.5999C83.2081 39.5999 45.6 77.2079 45.6 123.6L45.6 308.4C45.6 354.792 83.2081 392.4 129.6 392.4H314.4C360.792 392.4 398.4 354.792 398.4 308.4V123.6C398.4 77.2079 360.792 39.5999 314.4 39.5999Z" fill="#F0F0F0"/>
<path d="M314.4 39.5999L129.6 39.5999C83.2081 39.5999 45.6 77.2079 45.6 123.6L45.6 308.4C45.6 354.792 83.2081 392.4 129.6 392.4H314.4C360.792 392.4 398.4 354.792 398.4 308.4V123.6C398.4 77.2079 360.792 39.5999 314.4 39.5999Z" fill="url(#paint0_linear_26_1047)" fill-opacity="0.05"/>
</g>
<g opacity="0.9" filter="url(#filter2_ii_26_1047)">
<path d="M188.4 216C188.4 197.443 203.442 182.4 222 182.4C240.558 182.4 255.6 197.443 255.6 216C255.6 234.558 240.558 249.6 222 249.6C203.442 249.6 188.4 234.558 188.4 216Z" fill="#222222"/>
<path d="M188.4 216C188.4 197.443 203.442 182.4 222 182.4C240.558 182.4 255.6 197.443 255.6 216C255.6 234.558 240.558 249.6 222 249.6C203.442 249.6 188.4 234.558 188.4 216Z" fill="url(#paint1_radial_26_1047)" fill-opacity="0.3"/>
<path d="M222 245.4C205.763 245.4 192.6 232.237 192.6 216H184.2C184.2 236.876 201.124 253.8 222 253.8V245.4ZM251.4 216C251.4 232.237 238.237 245.4 222 245.4V253.8C242.876 253.8 259.8 236.876 259.8 216H251.4ZM222 186.6C238.237 186.6 251.4 199.763 251.4 216H259.8C259.8 195.124 242.876 178.2 222 178.2V186.6ZM222 178.2C201.124 178.2 184.2 195.124 184.2 216H192.6C192.6 199.763 205.763 186.6 222 186.6V178.2Z" fill="black"/>
</g>
<defs>
<filter id="filter0_diii_26_1047" x="0" y="-18" width="444" height="462" filterUnits="userSpaceOnUse" color-interpolation-filters="sRGB">
<feFlood flood-opacity="0" result="BackgroundImageFix"/>
<feColorMatrix in="SourceAlpha" type="matrix" values="0 0 0 0 0 0 0 0 0 0 0 0 0 0 0 0 0 0 127 0" result="hardAlpha"/>
<feOffset dy="6"/>
<feGaussianBlur stdDeviation="6"/>
<feComposite in2="hardAlpha" operator="out"/>
<feColorMatrix type="matrix" values="0 0 0 0 0 0 0 0 0 0 0 0 0 0 0 0 0 0 0.1 0"/>
<feBlend mode="normal" in2="BackgroundImageFix" result="effect1_dropShadow_26_1047"/>
<feBlend mode="normal" in="SourceGraphic" in2="effect1_dropShadow_26_1047" result="shape"/>
<feColorMatrix in="SourceAlpha" type="matrix" values="0 0 0 0 0 0 0 0 0 0 0 0 0 0 0 0 0 0 127 0" result="hardAlpha"/>
<feOffset dx="8" dy="8"/>
<feGaussianBlur stdDeviation="16"/>
<feComposite in2="hardAlpha" operator="arithmetic" k2="-1" k3="1"/>
<feColorMatrix type="matrix" values="0 0 0 0 0 0 0 0 0 0 0 0 0 0 0 0 0 0 0.05 0"/>
<feBlend mode="normal" in2="shape" result="effect2_innerShadow_26_1047"/>
<feColorMatrix in="SourceAlpha" type="matrix" values="0 0 0 0 0 0 0 0 0 0 0 0 0 0 0 0 0 0 127 0" result="hardAlpha"/>
<feOffset dx="-8" dy="8"/>
<feGaussianBlur stdDeviation="6"/>
<feComposite in2="hardAlpha" operator="arithmetic" k2="-1" k3="1"/>
<feColorMatrix type="matrix" values="0 0 0 0 1 0 0 0 0 1 0 0 0 0 1 0 0 0 1 0"/>
<feBlend mode="normal" in2="effect2_innerShadow_26_1047" result="effect3_innerShadow_26_1047"/>
<feColorMatrix in="SourceAlpha" type="matrix" values="0 0 0 0 0 0 0 0 0 0 0 0 0 0 0 0 0 0 127 0" result="hardAlpha"/>
<feOffset dx="-8" dy="-24"/>
<feGaussianBlur stdDeviation="16"/>
<feComposite in2="hardAlpha" operator="arithmetic" k2="-1" k3="1"/>
<feColorMatrix type="matrix" values="0 0 0 0 0 0 0 0 0 0 0 0 0 0 0 0 0 0 0.1 0"/>
<feBlend mode="normal" in2="effect3_innerShadow_26_1047" result="effect4_innerShadow_26_1047"/>
</filter>
<filter id="filter1_i_26_1047" x="45.6" y="27.5999" width="376.8" height="364.8" filterUnits="userSpaceOnUse" color-interpolation-filters="sRGB">
<feFlood flood-opacity="0" result="BackgroundImageFix"/>
<feBlend mode="normal" in="SourceGraphic" in2="BackgroundImageFix" result="shape"/>
<feColorMatrix in="SourceAlpha" type="matrix" values="0 0 0 0 0 0 0 0 0 0 0 0 0 0 0 0 0 0 127 0" result="hardAlpha"/>
<feOffset dx="24" dy="-12"/>
<feGaussianBlur stdDeviation="12"/>
<feComposite in2="hardAlpha" operator="arithmetic" k2="-1" k3="1"/>
<feColorMatrix type="matrix" values="0 0 0 0 1 0 0 0 0 1 0 0 0 0 1 0 0 0 0.3 0"/>
<feBlend mode="normal" in2="shape" result="effect1_innerShadow_26_1047"/>
</filter>
<filter id="filter2_ii_26_1047" x="181.2" y="174.2" width="80.6" height="81.6" filterUnits="userSpaceOnUse" color-interpolation-filters="sRGB">
<feFlood flood-opacity="0" result="BackgroundImageFix"/>
<feBlend mode="normal" in="SourceGraphic" in2="BackgroundImageFix" result="shape"/>
<feColorMatrix in="SourceAlpha" type="matrix" values="0 0 0 0 0 0 0 0 0 0 0 0 0 0 0 0 0 0 127 0" result="hardAlpha"/>
<feOffset dx="-3" dy="2"/>
<feGaussianBlur stdDeviation="4"/>
<feComposite in2="hardAlpha" operator="arithmetic" k2="-1" k3="1"/>
<feColorMatrix type="matrix" values="0 0 0 0 1 0 0 0 0 1 0 0 0 0 1 0 0 0 0.2 0"/>
<feBlend mode="normal" in2="shape" result="effect1_innerShadow_26_1047"/>
<feColorMatrix in="SourceAlpha" type="matrix" values="0 0 0 0 0 0 0 0 0 0 0 0 0 0 0 0 0 0 127 0" result="hardAlpha"/>
<feOffset dx="2" dy="-8"/>
<feGaussianBlur stdDeviation="2"/>
<feComposite in2="hardAlpha" operator="arithmetic" k2="-1" k3="1"/>
<feColorMatrix type="matrix" values="0 0 0 0 0 0 0 0 0 0 0 0 0 0 0 0 0 0 1 0"/>
<feBlend mode="normal" in2="effect1_innerShadow_26_1047" result="effect2_innerShadow_26_1047"/>
</filter>
<linearGradient id="paint0_linear_26_1047" x1="329.1" y1="39.5998" x2="56.1" y2="392.4" gradientUnits="userSpaceOnUse">
<stop/>
<stop offset="1" stop-opacity="0"/>
</linearGradient>
<radialGradient id="paint1_radial_26_1047" cx="0" cy="0" r="1" gradientUnits="userSpaceOnUse" gradientTransform="translate(222 197.1) rotate(90) scale(52.5)">
<stop/>
<stop offset="0.572917" stop-color="#464646"/>
</radialGradient>
</defs>
</svg>
