<svg width="444" height="444" viewBox="0 0 444 444" fill="none" xmlns="http://www.w3.org/2000/svg">
<g filter="url(#filter0_diii_26_1048)">
<path d="M364.8 6L79.2 6C42.0865 6 12 36.0865 12 73.2L12 358.8C12 395.914 42.0865 426 79.2 426H364.8C401.914 426 432 395.914 432 358.8V73.2C432 36.0865 401.914 6 364.8 6Z" fill="#EEEEEE"/>
</g>
<g filter="url(#filter1_i_26_1048)">
<path d="M314.4 39.5999H129.6C83.2081 39.5999 45.6 77.2079 45.6 123.6V308.4C45.6 354.792 83.2081 392.4 129.6 392.4H314.4C360.792 392.4 398.4 354.792 398.4 308.4V123.6C398.4 77.2079 360.792 39.5999 314.4 39.5999Z" fill="#F0F0F0"/>
<path d="M314.4 39.5999H129.6C83.2081 39.5999 45.6 77.2079 45.6 123.6V308.4C45.6 354.792 83.2081 392.4 129.6 392.4H314.4C360.792 392.4 398.4 354.792 398.4 308.4V123.6C398.4 77.2079 360.792 39.5999 314.4 39.5999Z" fill="url(#paint0_linear_26_1048)" fill-opacity="0.05"/>
</g>
<g opacity="0.9" filter="url(#filter2_ii_26_1048)">
<path d="M104.4 300C104.4 281.442 119.443 266.4 138 266.4C156.557 266.4 171.6 281.442 171.6 300C171.6 318.558 156.557 333.6 138 333.6C119.443 333.6 104.4 318.558 104.4 300Z" fill="#222222"/>
<path d="M104.4 300C104.4 281.442 119.443 266.4 138 266.4C156.557 266.4 171.6 281.442 171.6 300C171.6 318.558 156.557 333.6 138 333.6C119.443 333.6 104.4 318.558 104.4 300Z" fill="url(#paint1_radial_26_1048)" fill-opacity="0.3"/>
<path d="M138 329.4C121.763 329.4 108.6 316.237 108.6 300H100.2C100.2 320.876 117.124 337.8 138 337.8V329.4ZM167.4 300C167.4 316.237 154.237 329.4 138 329.4V337.8C158.876 337.8 175.8 320.876 175.8 300H167.4ZM138 270.6C154.237 270.6 167.4 283.763 167.4 300H175.8C175.8 279.124 158.876 262.2 138 262.2V270.6ZM138 262.2C117.124 262.2 100.2 279.124 100.2 300H108.6C108.6 283.763 121.763 270.6 138 270.6V262.2Z" fill="black"/>
</g>
<g opacity="0.9" filter="url(#filter3_ii_26_1048)">
<path d="M272.4 132C272.4 113.443 287.442 98.4 306 98.4C324.558 98.4 339.6 113.443 339.6 132C339.6 150.557 324.558 165.6 306 165.6C287.442 165.6 272.4 150.557 272.4 132Z" fill="#222222"/>
<path d="M272.4 132C272.4 113.443 287.442 98.4 306 98.4C324.558 98.4 339.6 113.443 339.6 132C339.6 150.557 324.558 165.6 306 165.6C287.442 165.6 272.4 150.557 272.4 132Z" fill="url(#paint2_radial_26_1048)" fill-opacity="0.3"/>
<path d="M306 161.4C289.763 161.4 276.6 148.237 276.6 132H268.2C268.2 152.876 285.124 169.8 306 169.8V161.4ZM335.4 132C335.4 148.237 322.237 161.4 306 161.4V169.8C326.876 169.8 343.8 152.876 343.8 132H335.4ZM306 102.6C322.237 102.6 335.4 115.763 335.4 132H343.8C343.8 111.124 326.876 94.2 306 94.2V102.6ZM306 94.2C285.124 94.2 268.2 111.124 268.2 132H276.6C276.6 115.763 289.763 102.6 306 102.6V94.2Z" fill="black"/>
</g>
<defs>
<filter id="filter0_diii_26_1048" x="0" y="-18" width="444" height="462" filterUnits="userSpaceOnUse" color-interpolation-filters="sRGB">
<feFlood flood-opacity="0" result="BackgroundImageFix"/>
<feColorMatrix in="SourceAlpha" type="matrix" values="0 0 0 0 0 0 0 0 0 0 0 0 0 0 0 0 0 0 127 0" result="hardAlpha"/>
<feOffset dy="6"/>
<feGaussianBlur stdDeviation="6"/>
<feComposite in2="hardAlpha" operator="out"/>
<feColorMatrix type="matrix" values="0 0 0 0 0 0 0 0 0 0 0 0 0 0 0 0 0 0 0.1 0"/>
<feBlend mode="normal" in2="BackgroundImageFix" result="effect1_dropShadow_26_1048"/>
<feBlend mode="normal" in="SourceGraphic" in2="effect1_dropShadow_26_1048" result="shape"/>
<feColorMatrix in="SourceAlpha" type="matrix" values="0 0 0 0 0 0 0 0 0 0 0 0 0 0 0 0 0 0 127 0" result="hardAlpha"/>
<feOffset dx="8" dy="8"/>
<feGaussianBlur stdDeviation="16"/>
<feComposite in2="hardAlpha" operator="arithmetic" k2="-1" k3="1"/>
<feColorMatrix type="matrix" values="0 0 0 0 0 0 0 0 0 0 0 0 0 0 0 0 0 0 0.05 0"/>
<feBlend mode="normal" in2="shape" result="effect2_innerShadow_26_1048"/>
<feColorMatrix in="SourceAlpha" type="matrix" values="0 0 0 0 0 0 0 0 0 0 0 0 0 0 0 0 0 0 127 0" result="hardAlpha"/>
<feOffset dx="-8" dy="8"/>
<feGaussianBlur stdDeviation="6"/>
<feComposite in2="hardAlpha" operator="arithmetic" k2="-1" k3="1"/>
<feColorMatrix type="matrix" values="0 0 0 0 1 0 0 0 0 1 0 0 0 0 1 0 0 0 1 0"/>
<feBlend mode="normal" in2="effect2_innerShadow_26_1048" result="effect3_innerShadow_26_1048"/>
<feColorMatrix in="SourceAlpha" type="matrix" values="0 0 0 0 0 0 0 0 0 0 0 0 0 0 0 0 0 0 127 0" result="hardAlpha"/>
<feOffset dx="-8" dy="-24"/>
<feGaussianBlur stdDeviation="16"/>
<feComposite in2="hardAlpha" operator="arithmetic" k2="-1" k3="1"/>
<feColorMatrix type="matrix" values="0 0 0 0 0 0 0 0 0 0 0 0 0 0 0 0 0 0 0.1 0"/>
<feBlend mode="normal" in2="effect3_innerShadow_26_1048" result="effect4_innerShadow_26_1048"/>
</filter>
<filter id="filter1_i_26_1048" x="45.6" y="27.5999" width="376.8" height="364.8" filterUnits="userSpaceOnUse" color-interpolation-filters="sRGB">
<feFlood flood-opacity="0" result="BackgroundImageFix"/>
<feBlend mode="normal" in="SourceGraphic" in2="BackgroundImageFix" result="shape"/>
<feColorMatrix in="SourceAlpha" type="matrix" values="0 0 0 0 0 0 0 0 0 0 0 0 0 0 0 0 0 0 127 0" result="hardAlpha"/>
<feOffset dx="24" dy="-12"/>
<feGaussianBlur stdDeviation="12"/>
<feComposite in2="hardAlpha" operator="arithmetic" k2="-1" k3="1"/>
<feColorMatrix type="matrix" values="0 0 0 0 1 0 0 0 0 1 0 0 0 0 1 0 0 0 0.3 0"/>
<feBlend mode="normal" in2="shape" result="effect1_innerShadow_26_1048"/>
</filter>
<filter id="filter2_ii_26_1048" x="97.2" y="258.2" width="80.6" height="81.6" filterUnits="userSpaceOnUse" color-interpolation-filters="sRGB">
<feFlood flood-opacity="0" result="BackgroundImageFix"/>
<feBlend mode="normal" in="SourceGraphic" in2="BackgroundImageFix" result="shape"/>
<feColorMatrix in="SourceAlpha" type="matrix" values="0 0 0 0 0 0 0 0 0 0 0 0 0 0 0 0 0 0 127 0" result="hardAlpha"/>
<feOffset dx="-3" dy="2"/>
<feGaussianBlur stdDeviation="4"/>
<feComposite in2="hardAlpha" operator="arithmetic" k2="-1" k3="1"/>
<feColorMatrix type="matrix" values="0 0 0 0 1 0 0 0 0 1 0 0 0 0 1 0 0 0 0.2 0"/>
<feBlend mode="normal" in2="shape" result="effect1_innerShadow_26_1048"/>
<feColorMatrix in="SourceAlpha" type="matrix" values="0 0 0 0 0 0 0 0 0 0 0 0 0 0 0 0 0 0 127 0" result="hardAlpha"/>
<feOffset dx="2" dy="-8"/>
<feGaussianBlur stdDeviation="2"/>
<feComposite in2="hardAlpha" operator="arithmetic" k2="-1" k3="1"/>
<feColorMatrix type="matrix" values="0 0 0 0 0 0 0 0 0 0 0 0 0 0 0 0 0 0 1 0"/>
<feBlend mode="normal" in2="effect1_innerShadow_26_1048" result="effect2_innerShadow_26_1048"/>
</filter>
<filter id="filter3_ii_26_1048" x="265.2" y="90.2" width="80.6" height="81.6" filterUnits="userSpaceOnUse" color-interpolation-filters="sRGB">
<feFlood flood-opacity="0" result="BackgroundImageFix"/>
<feBlend mode="normal" in="SourceGraphic" in2="BackgroundImageFix" result="shape"/>
<feColorMatrix in="SourceAlpha" type="matrix" values="0 0 0 0 0 0 0 0 0 0 0 0 0 0 0 0 0 0 127 0" result="hardAlpha"/>
<feOffset dx="-3" dy="2"/>
<feGaussianBlur stdDeviation="4"/>
<feComposite in2="hardAlpha" operator="arithmetic" k2="-1" k3="1"/>
<feColorMatrix type="matrix" values="0 0 0 0 1 0 0 0 0 1 0 0 0 0 1 0 0 0 0.2 0"/>
<feBlend mode="normal" in2="shape" result="effect1_innerShadow_26_1048"/>
<feColorMatrix in="SourceAlpha" type="matrix" values="0 0 0 0 0 0 0 0 0 0 0 0 0 0 0 0 0 0 127 0" result="hardAlpha"/>
<feOffset dx="2" dy="-8"/>
<feGaussianBlur stdDeviation="2"/>
<feComposite in2="hardAlpha" operator="arithmetic" k2="-1" k3="1"/>
<feColorMatrix type="matrix" values="0 0 0 0 0 0 0 0 0 0 0 0 0 0 0 0 0 0 1 0"/>
<feBlend mode="normal" in2="effect1_innerShadow_26_1048" result="effect2_innerShadow_26_1048"/>
</filter>
<linearGradient id="paint0_linear_26_1048" x1="329.1" y1="39.5998" x2="56.1" y2="392.4" gradientUnits="userSpaceOnUse">
<stop/>
<stop offset="1" stop-opacity="0"/>
</linearGradient>
<radialGradient id="paint1_radial_26_1048" cx="0" cy="0" r="1" gradientUnits="userSpaceOnUse" gradientTransform="translate(138 281.1) rotate(90) scale(52.5)">
<stop/>
<stop offset="0.572917" stop-color="#464646"/>
</radialGradient>
<radialGradient id="paint2_radial_26_1048" cx="0" cy="0" r="1" gradientUnits="userSpaceOnUse" gradientTransform="translate(306 113.1) rotate(90) scale(52.5)">
<stop/>
<stop offset="0.572917" stop-color="#464646"/>
</radialGradient>
</defs>
</svg>
