<svg width="262" height="241" viewBox="0 0 262 241" fill="none" xmlns="http://www.w3.org/2000/svg">
<path d="M45.4489 0.977783H213.551V240.022H188.876V130.524H188.634C185.906 100.262 160.473 76.5467 129.5 76.5467C98.5273 76.5467 73.0936 100.262 70.3665 130.524H70.1245V240.022H45.4489V0.977783Z" fill="white"/>
<path d="M0.724457 34.9067L10.7489 68.8356H19.2311V206.093C14.9724 206.093 11.52 209.546 11.52 213.804V223.058H9.97779C5.71906 223.058 2.26668 226.51 2.26668 230.769V240.022H88.6311V230.769C88.6311 226.51 85.1787 223.058 80.92 223.058H79.3778V213.804C79.3778 209.546 75.9254 206.093 71.6667 206.093H62.4133V34.9067H0.724457Z" fill="white"/>
<path d="M190.418 206.093C186.159 206.093 182.707 209.546 182.707 213.804V223.058H181.164C176.906 223.058 173.453 226.51 173.453 230.769V240.022H259.818V230.769C259.818 226.51 256.365 223.058 252.107 223.058H250.564V213.804C250.564 209.546 247.112 206.093 242.853 206.093V68.8356H251.336L261.36 34.9067H199.671V206.093H190.418Z" fill="white"/>
</svg>
